<?xml version="1.0" standalone="no"?>
<!DOCTYPE svg PUBLIC "-//W3C//DTD SVG 20010904//EN"
 "http://www.w3.org/TR/2001/REC-SVG-20010904/DTD/svg10.dtd">
<svg version="1.0" xmlns="http://www.w3.org/2000/svg"
 width="700.000000pt" height="700.000000pt" viewBox="0 0 700.000000 700.000000"
 preserveAspectRatio="xMidYMid meet">
<metadata>
Created by potrace 1.11, written by Peter Selinger 2001-2013
</metadata>
<g transform="translate(0.000000,700.000000) scale(0.100000,-0.100000)"
fill="#000000" stroke="none">
<path d="M3447 6824 c-1 -1 -65 -4 -142 -8 -77 -3 -151 -8 -165 -11 -14 -2
-47 -7 -75 -10 -43 -5 -149 -22 -250 -41 -400 -73 -884 -287 -1255 -554 -141
-102 -160 -121 -160 -168 0 -65 56 -115 119 -105 13 2 64 33 114 70 301 220
652 395 993 494 127 36 109 32 259 63 66 13 147 27 180 31 33 4 69 9 79 11
117 21 586 21 701 0 11 -2 47 -7 80 -10 204 -24 536 -113 753 -202 113 -47
324 -152 396 -198 31 -20 59 -36 62 -36 13 0 217 -146 319 -227 105 -84 294
-265 380 -364 278 -317 479 -666 617 -1069 43 -127 105 -380 123 -505 4 -22 8
-50 10 -62 21 -127 28 -570 12 -742 -7 -75 -27 -210 -42 -273 -2 -13 -7 -34
-9 -48 -18 -107 -100 -379 -162 -532 -108 -269 -318 -618 -493 -822 -226 -262
-454 -463 -711 -628 -154 -99 -372 -211 -520 -268 -47 -18 -94 -36 -105 -41
-127 -50 -442 -129 -606 -153 -221 -32 -663 -38 -807 -11 -9 1 -44 6 -77 9
-33 4 -94 14 -135 23 -41 8 -86 17 -100 20 -14 2 -59 13 -100 24 -41 11 -92
24 -112 30 -160 40 -479 177 -672 288 -531 307 -961 763 -1236 1312 -113 224
-228 556 -264 764 -3 17 -8 41 -11 55 -52 261 -65 676 -30 955 49 375 156 715
335 1062 84 163 88 180 49 234 -24 33 -67 45 -114 29 -28 -9 -43 -25 -77 -83
-60 -103 -160 -316 -202 -432 -20 -55 -41 -109 -46 -120 -18 -38 -79 -263
-104 -381 -48 -229 -67 -413 -70 -659 -2 -140 6 -318 18 -410 3 -22 8 -60 11
-85 51 -420 233 -921 475 -1305 317 -503 773 -922 1295 -1190 328 -168 703
-289 1041 -335 44 -6 89 -12 100 -14 124 -24 604 -24 744 -1 14 2 48 7 75 10
249 29 641 134 840 224 11 5 47 21 80 36 687 307 1261 852 1603 1522 145 283
259 617 307 895 17 98 35 224 40 278 3 36 8 88 10 115 7 70 7 355 0 440 -6 89
-14 172 -20 210 -3 17 -7 48 -10 70 -5 35 -10 65 -31 180 -29 160 -124 460
-206 650 -288 665 -808 1237 -1443 1585 -70 39 -253 130 -260 130 -3 0 -24 9
-48 19 -133 61 -350 133 -512 171 -118 28 -124 29 -165 36 -19 2 -57 9 -85 14
-47 8 -124 19 -190 26 -75 8 -392 22 -398 18z"/>
<path d="M1180 5794 c-89 -19 -176 -64 -230 -119 -42 -43 -45 -49 -44 -98 2
-61 98 -357 194 -597 73 -184 192 -433 280 -586 57 -99 202 -320 242 -369 9
-11 46 -56 81 -100 201 -250 474 -473 744 -609 193 -97 367 -154 558 -182 22
-3 51 -8 65 -11 14 -3 95 -6 180 -8 175 -4 309 13 349 43 51 37 57 112 12 153
-35 33 -54 36 -136 24 -96 -15 -345 -12 -435 4 -193 35 -403 107 -533 183 -26
15 -50 28 -53 28 -3 0 -46 28 -97 61 -293 195 -545 469 -758 826 -88 146 -241
458 -304 618 -56 141 -165 463 -165 486 0 36 104 59 248 55 312 -9 746 -173
1216 -459 153 -93 446 -313 562 -421 436 -407 691 -784 813 -1201 72 -249 85
-525 36 -756 -9 -41 -18 -86 -22 -101 -5 -28 -40 -49 -148 -90 -144 -55 -255
-85 -450 -122 -134 -25 -315 -38 -535 -38 -168 -1 -405 9 -453 18 -54 9 -117
-44 -117 -99 0 -52 26 -83 117 -138 136 -81 181 -115 274 -208 123 -124 191
-248 219 -402 11 -58 14 -214 6 -254 -12 -63 -20 -135 -17 -166 2 -25 48 -66
81 -73 44 -8 64 3 185 100 379 302 654 608 835 926 63 110 129 253 151 326 11
37 24 49 127 119 124 83 279 228 374 348 81 102 162 228 273 420 119 208 145
247 204 308 69 72 111 91 201 91 93 0 120 -6 226 -49 126 -50 242 -117 334
-191 76 -62 323 -234 335 -234 3 0 23 -11 44 -25 46 -31 87 -37 128 -20 55 23
73 89 42 147 -13 24 -214 175 -388 290 -73 49 -156 110 -183 136 -53 50 -195
193 -225 228 -10 11 -76 88 -147 170 -119 137 -235 258 -313 326 -45 40 -170
104 -233 121 -54 13 -190 15 -240 3 -14 -3 -38 -8 -55 -12 -94 -19 -364 -161
-410 -216 -44 -52 -32 -124 27 -154 45 -23 76 -16 162 35 138 83 195 109 306
138 42 12 128 10 174 -4 97 -28 181 -100 382 -330 68 -78 124 -144 124 -146 0
-2 -33 -3 -73 -2 -44 1 -100 -5 -139 -15 -173 -45 -273 -152 -478 -510 -98
-172 -214 -347 -270 -410 -98 -109 -242 -244 -217 -203 9 14 20 161 20 263 1
478 -182 938 -558 1405 -75 92 -326 354 -405 420 -138 117 -186 156 -270 219
-94 70 -189 137 -234 166 -68 43 -243 147 -256 153 -8 4 -44 23 -80 43 -36 20
-126 65 -200 99 -262 121 -466 187 -710 230 -77 14 -285 13 -350 -1z m2655
-3511 c-128 -237 -253 -401 -470 -618 -127 -127 -246 -238 -250 -233 -2 2 -5
40 -9 86 -17 231 -105 426 -268 596 -37 39 -68 73 -68 76 0 3 51 5 113 6 162
1 292 11 467 34 144 20 287 51 406 89 49 16 95 29 102 30 8 1 0 -24 -23 -66z"/>
</g>
</svg>
